<?xml version="1.0" encoding="UTF-8"?>
<svg xmlns="http://www.w3.org/2000/svg" xmlns:xlink="http://www.w3.org/1999/xlink" width="24pt" height="24pt" viewBox="0 0 24 24" version="1.1">
<defs>
<clipPath id="clip1">
  <path d="M 4 7 L 20 7 L 20 24 L 4 24 Z M 4 7 "/>
</clipPath>
<clipPath id="clip2">
  <path d="M 23.671875 12 C 23.671875 18.445312 18.445312 23.671875 12 23.671875 C 5.554688 23.671875 0.332031 18.445312 0.332031 12 C 0.332031 5.554688 5.554688 0.332031 12 0.332031 C 18.445312 0.332031 23.671875 5.554688 23.671875 12 Z M 23.671875 12 "/>
</clipPath>
</defs>
<g id="surface1">
<g clip-path="url(#clip1)" clip-rule="nonzero">
<g clip-path="url(#clip2)" clip-rule="nonzero">
<path style=" stroke:none;fill-rule:nonzero;fill:rgb(0.392157%,0.784314%,0.784314%);fill-opacity:1;" d="M 12.523438 23.914062 L 10.707031 23.765625 L 9.660156 23.597656 C 9.785156 23.484375 9.847656 23.34375 9.847656 23.171875 C 9.847656 23.144531 9.84375 22.890625 9.839844 22.410156 C 9.835938 21.929688 9.832031 21.511719 9.832031 21.15625 L 9.507812 21.210938 C 9.300781 21.25 9.039062 21.265625 8.722656 21.261719 C 8.410156 21.253906 8.082031 21.222656 7.742188 21.160156 C 7.402344 21.101562 7.089844 20.957031 6.796875 20.738281 C 6.503906 20.515625 6.296875 20.226562 6.175781 19.867188 L 6.035156 19.542969 C 5.941406 19.328125 5.792969 19.085938 5.589844 18.824219 C 5.386719 18.558594 5.179688 18.378906 4.976562 18.289062 L 4.875 18.214844 C 4.808594 18.171875 4.75 18.113281 4.691406 18.046875 C 4.636719 17.980469 4.589844 17.914062 4.566406 17.847656 C 4.539062 17.78125 4.5625 17.730469 4.636719 17.6875 C 4.710938 17.644531 4.847656 17.621094 5.046875 17.621094 L 5.328125 17.664062 C 5.515625 17.703125 5.746094 17.816406 6.027344 18.003906 C 6.304688 18.191406 6.53125 18.4375 6.710938 18.738281 C 6.929688 19.121094 7.191406 19.417969 7.496094 19.617188 C 7.800781 19.820312 8.109375 19.921875 8.417969 19.921875 C 8.730469 19.921875 8.996094 19.898438 9.222656 19.851562 C 9.449219 19.804688 9.660156 19.734375 9.859375 19.636719 C 9.941406 19.007812 10.171875 18.523438 10.550781 18.183594 C 10.015625 18.128906 9.53125 18.042969 9.105469 17.929688 C 8.675781 17.816406 8.234375 17.632812 7.777344 17.378906 C 7.320312 17.121094 6.941406 16.808594 6.640625 16.429688 C 6.339844 16.054688 6.089844 15.5625 5.898438 14.949219 C 5.707031 14.339844 5.609375 13.632812 5.609375 12.832031 C 5.609375 11.691406 5.980469 10.722656 6.726562 9.921875 C 6.378906 9.066406 6.410156 8.105469 6.824219 7.042969 C 7.097656 6.960938 7.503906 7.023438 8.039062 7.234375 C 8.574219 7.445312 8.96875 7.628906 9.21875 7.777344 C 9.46875 7.925781 9.667969 8.054688 9.816406 8.15625 C 10.691406 7.914062 11.597656 7.789062 12.527344 7.789062 C 13.460938 7.789062 14.363281 7.914062 15.238281 8.15625 L 15.777344 7.820312 C 16.144531 7.59375 16.574219 7.386719 17.074219 7.195312 C 17.570312 7.007812 17.953125 6.957031 18.214844 7.042969 C 18.640625 8.105469 18.675781 9.066406 18.328125 9.921875 C 19.074219 10.722656 19.445312 11.691406 19.445312 12.828125 C 19.445312 13.628906 19.347656 14.339844 19.15625 14.953125 C 18.964844 15.570312 18.710938 16.0625 18.40625 16.4375 C 18.101562 16.808594 17.71875 17.121094 17.265625 17.375 C 16.808594 17.628906 16.363281 17.8125 15.9375 17.925781 C 15.507812 18.039062 15.027344 18.125 14.492188 18.179688 C 14.980469 18.605469 15.222656 19.273438 15.222656 20.1875 L 15.222656 23.164062 C 15.222656 23.332031 15.285156 23.476562 15.402344 23.589844 "/>
</g>
</g>
<path style="fill:none;stroke-width:30;stroke-linecap:butt;stroke-linejoin:miter;stroke:rgb(0.392157%,0.784314%,0.784314%);stroke-opacity:1;stroke-miterlimit:10;" d="M 1066.886523 539.95 C 1066.886523 830.929004 830.929004 1066.886523 539.95 1066.886523 C 248.970996 1066.886523 13.189827 830.929004 13.189827 539.95 C 13.189827 248.970996 248.970996 13.189827 539.95 13.189827 C 830.929004 13.189827 1066.886523 248.970996 1066.886523 539.95 Z M 1066.886523 539.95 " transform="matrix(0.0221504,0,0,0.0221504,0.0398708,0.0398708)"/>
</g>
</svg>
