<?xml version="1.0" encoding="UTF-8"?>
<svg xmlns="http://www.w3.org/2000/svg" xmlns:xlink="http://www.w3.org/1999/xlink" width="24pt" height="24pt" viewBox="0 0 24 24" version="1.1">
<g id="surface1">
<path style="fill:none;stroke-width:30;stroke-linecap:butt;stroke-linejoin:miter;stroke:rgb(0.392157%,0.784314%,0.784314%);stroke-opacity:1;stroke-miterlimit:10;" d="M 1066.886523 539.95 C 1066.886523 830.929004 830.929004 1066.886523 539.95 1066.886523 C 248.970996 1066.886523 13.189827 830.929004 13.189827 539.95 C 13.189827 248.970996 248.970996 13.189827 539.95 13.189827 C 830.929004 13.189827 1066.886523 248.970996 1066.886523 539.95 Z M 1066.886523 539.95 " transform="matrix(0.0221504,0,0,0.0221504,0.0398708,0.0398708)"/>
<path style=" stroke:none;fill-rule:nonzero;fill:rgb(0%,0%,0%);fill-opacity:1;" d="M 5.886719 14.589844 C 5.886719 12.953125 5.886719 11.316406 5.886719 9.679688 C 5.90625 9.539062 5.933594 9.402344 5.941406 9.257812 C 6.035156 7.675781 7.042969 6.480469 8.578125 6.148438 C 8.902344 6.074219 9.238281 6.046875 9.566406 6 C 11.203125 6 12.839844 6 14.476562 6 C 14.605469 6.019531 14.734375 6.046875 14.863281 6.054688 C 16.683594 6.152344 18.039062 7.464844 18.082031 9.277344 C 18.132812 11.1875 18.132812 13.101562 18.082031 15.007812 C 18.03125 16.792969 16.679688 18.144531 14.898438 18.191406 C 12.980469 18.242188 11.058594 18.238281 9.136719 18.191406 C 7.550781 18.15625 6.347656 17.085938 6.027344 15.550781 C 5.960938 15.238281 5.933594 14.910156 5.886719 14.589844 Z M 12.023438 17.109375 C 12.023438 17.109375 12.023438 17.105469 12.023438 17.105469 C 12.921875 17.105469 13.820312 17.125 14.722656 17.097656 C 15.453125 17.074219 16.101562 16.824219 16.554688 16.199219 C 16.855469 15.777344 16.988281 15.292969 16.988281 14.785156 C 17.003906 13.039062 17.023438 11.289062 16.988281 9.542969 C 16.960938 8.046875 16.125 7.199219 14.636719 7.164062 C 12.898438 7.128906 11.160156 7.125 9.425781 7.164062 C 7.921875 7.199219 7.085938 8.03125 7.050781 9.523438 C 7.015625 11.269531 7.015625 13.019531 7.050781 14.765625 C 7.082031 16.21875 7.9375 17.054688 9.386719 17.101562 C 10.265625 17.132812 11.144531 17.109375 12.023438 17.109375 Z M 12.023438 17.109375 "/>
<path style=" stroke:none;fill-rule:nonzero;fill:rgb(0%,0%,0%);fill-opacity:1;" d="M 11.992188 15.28125 C 10.234375 15.261719 8.851562 13.851562 8.871094 12.101562 C 8.894531 10.34375 10.304688 8.964844 12.058594 8.988281 C 13.804688 9.011719 15.171875 10.410156 15.164062 12.152344 C 15.152344 13.910156 13.746094 15.292969 11.992188 15.28125 Z M 14.050781 12.136719 C 14.054688 10.996094 13.15625 10.097656 12.015625 10.097656 C 10.875 10.097656 9.984375 10.996094 9.984375 12.140625 C 9.988281 13.265625 10.878906 14.160156 12.003906 14.164062 C 13.144531 14.171875 14.050781 13.277344 14.050781 12.136719 Z M 14.050781 12.136719 "/>
<path style=" stroke:none;fill-rule:nonzero;fill:rgb(0%,0%,0%);fill-opacity:1;" d="M 15.285156 8.128906 C 15.707031 8.128906 16.019531 8.4375 16.019531 8.855469 C 16.023438 9.265625 15.695312 9.601562 15.292969 9.601562 C 14.894531 9.605469 14.546875 9.257812 14.546875 8.863281 C 14.542969 8.460938 14.875 8.132812 15.285156 8.128906 Z M 15.285156 8.128906 "/>
</g>
</svg>
