<?xml version="1.0" encoding="UTF-8"?>
<svg xmlns="http://www.w3.org/2000/svg" xmlns:xlink="http://www.w3.org/1999/xlink" width="24pt" height="24pt" viewBox="0 0 24 24" version="1.1">
<g id="surface1">
<path style="fill:none;stroke-width:30;stroke-linecap:butt;stroke-linejoin:miter;stroke:rgb(0.392157%,0.784314%,0.784314%);stroke-opacity:1;stroke-miterlimit:10;" d="M 1066.886523 539.95 C 1066.886523 830.929004 830.929004 1066.886523 539.95 1066.886523 C 248.970996 1066.886523 13.189827 830.929004 13.189827 539.95 C 13.189827 248.970996 248.970996 13.189827 539.95 13.189827 C 830.929004 13.189827 1066.886523 248.970996 1066.886523 539.95 Z M 1066.886523 539.95 " transform="matrix(0.0221504,0,0,0.0221504,0.0398708,0.0398708)"/>
<path style=" stroke:none;fill-rule:nonzero;fill:rgb(0%,0%,0%);fill-opacity:1;" d="M 13.167969 10.972656 C 13.582031 10.4375 14.101562 10.101562 14.761719 10.035156 C 16.113281 9.902344 17.164062 10.5 17.515625 11.914062 C 17.597656 12.246094 17.636719 12.601562 17.644531 12.945312 C 17.660156 14.132812 17.644531 15.320312 17.652344 16.511719 C 17.65625 16.714844 17.59375 16.773438 17.390625 16.769531 C 16.828125 16.757812 16.261719 16.765625 15.695312 16.765625 C 15.40625 16.765625 15.402344 16.765625 15.402344 16.480469 C 15.402344 15.40625 15.40625 14.332031 15.402344 13.253906 C 15.402344 13.066406 15.390625 12.878906 15.355469 12.695312 C 15.277344 12.265625 15.074219 11.929688 14.621094 11.824219 C 14.125 11.714844 13.710938 11.867188 13.40625 12.277344 C 13.222656 12.523438 13.167969 12.808594 13.167969 13.109375 C 13.167969 14.234375 13.167969 15.359375 13.167969 16.480469 C 13.167969 16.5625 13.167969 16.648438 13.167969 16.742188 C 13.097656 16.753906 13.042969 16.765625 12.992188 16.765625 C 12.375 16.769531 11.761719 16.761719 11.144531 16.769531 C 10.980469 16.773438 10.949219 16.710938 10.953125 16.5625 C 10.957031 14.5 10.957031 12.441406 10.953125 10.378906 C 10.953125 10.210938 11.011719 10.160156 11.167969 10.164062 C 11.761719 10.167969 12.355469 10.167969 12.949219 10.164062 C 13.125 10.160156 13.183594 10.226562 13.171875 10.394531 C 13.15625 10.582031 13.167969 10.777344 13.167969 10.972656 Z M 13.167969 10.972656 "/>
<path style=" stroke:none;fill-rule:nonzero;fill:rgb(0%,0%,0%);fill-opacity:1;" d="M 9.804688 13.476562 C 9.804688 14.480469 9.800781 15.488281 9.808594 16.496094 C 9.8125 16.703125 9.757812 16.773438 9.539062 16.769531 C 8.960938 16.753906 8.378906 16.757812 7.800781 16.765625 C 7.625 16.769531 7.554688 16.726562 7.554688 16.535156 C 7.5625 14.488281 7.5625 12.441406 7.554688 10.394531 C 7.554688 10.203125 7.625 10.152344 7.800781 10.15625 C 8.386719 10.164062 8.976562 10.164062 9.5625 10.15625 C 9.761719 10.152344 9.808594 10.230469 9.808594 10.417969 C 9.800781 11.4375 9.804688 12.457031 9.804688 13.476562 Z M 9.804688 13.476562 "/>
<path style=" stroke:none;fill-rule:nonzero;fill:rgb(0%,0%,0%);fill-opacity:1;" d="M 9.9375 8.183594 C 9.9375 8.84375 9.40625 9.335938 8.679688 9.339844 C 7.972656 9.34375 7.433594 8.839844 7.433594 8.171875 C 7.433594 7.503906 7.980469 7.003906 8.707031 7.011719 C 9.421875 7.015625 9.9375 7.503906 9.9375 8.183594 Z M 9.9375 8.183594 "/>
</g>
</svg>
