<?xml version="1.0" encoding="UTF-8"?>
<svg xmlns="http://www.w3.org/2000/svg" xmlns:xlink="http://www.w3.org/1999/xlink" width="24pt" height="24pt" viewBox="0 0 24 24" version="1.1">
<g id="surface1">
<path style="fill:none;stroke-width:30;stroke-linecap:butt;stroke-linejoin:miter;stroke:rgb(0.392157%,0.784314%,0.784314%);stroke-opacity:1;stroke-miterlimit:10;" d="M 1066.886523 539.95 C 1066.886523 830.929004 830.929004 1066.886523 539.95 1066.886523 C 248.970996 1066.886523 13.189827 830.929004 13.189827 539.95 C 13.189827 248.970996 248.970996 13.189827 539.95 13.189827 C 830.929004 13.189827 1066.886523 248.970996 1066.886523 539.95 Z M 1066.886523 539.95 " transform="matrix(0.0221504,0,0,0.0221504,0.0398708,0.0398708)"/>
<path style=" stroke:none;fill-rule:nonzero;fill:rgb(0%,0%,0%);fill-opacity:1;" d="M 14.558594 7.851562 C 15.449219 7.835938 15.921875 8.15625 16.375 8.570312 C 16.757812 8.535156 17.257812 8.320312 17.550781 8.171875 C 17.648438 8.121094 17.8125 8.089844 17.90625 8.039062 C 17.738281 8.492188 17.441406 8.824219 17.089844 9.09375 C 17.015625 9.15625 16.9375 9.238281 16.839844 9.273438 C 16.839844 9.277344 16.839844 9.277344 16.839844 9.28125 C 17.335938 9.277344 17.75 9.050781 18.140625 8.929688 C 18.140625 8.929688 18.140625 8.933594 18.140625 8.933594 C 17.933594 9.261719 17.65625 9.589844 17.359375 9.828125 C 17.238281 9.921875 17.121094 10.019531 17 10.113281 C 17.007812 10.640625 16.992188 11.144531 16.894531 11.589844 C 16.320312 14.167969 14.800781 15.917969 12.394531 16.664062 C 11.53125 16.9375 10.136719 17.042969 9.144531 16.800781 C 8.652344 16.679688 8.210938 16.542969 7.792969 16.359375 C 7.5625 16.257812 7.347656 16.148438 7.144531 16.027344 C 7.078125 15.984375 7.011719 15.945312 6.945312 15.902344 C 7.167969 15.910156 7.425781 15.933594 7.675781 15.933594 C 7.90625 15.929688 8.125 15.90625 8.332031 15.859375 C 8.855469 15.746094 9.3125 15.597656 9.710938 15.363281 C 9.902344 15.25 10.195312 15.117188 10.332031 14.957031 C 10.078125 14.960938 9.839844 14.902344 9.648438 14.835938 C 8.90625 14.574219 8.472656 14.089844 8.191406 13.367188 C 8.417969 13.390625 9.0625 13.449219 9.21875 13.320312 C 8.933594 13.304688 8.660156 13.140625 8.464844 13.019531 C 7.867188 12.644531 7.378906 12.019531 7.386719 11.054688 C 7.460938 11.089844 7.542969 11.128906 7.621094 11.164062 C 7.769531 11.226562 7.921875 11.261719 8.101562 11.300781 C 8.179688 11.3125 8.328125 11.359375 8.417969 11.328125 C 8.414062 11.328125 8.410156 11.328125 8.40625 11.328125 C 8.289062 11.191406 8.101562 11.105469 7.984375 10.960938 C 7.601562 10.484375 7.152344 9.78125 7.378906 8.910156 C 7.4375 8.6875 7.621094 8.460938 7.71875 8.28125 C 7.722656 8.28125 7.722656 8.285156 7.726562 8.285156 C 7.773438 8.378906 7.871094 8.449219 7.9375 8.527344 C 8.132812 8.769531 8.371094 8.988281 8.621094 9.179688 C 9.460938 9.835938 10.214844 10.238281 11.425781 10.535156 C 11.734375 10.613281 12.09375 10.667969 12.457031 10.671875 C 12.351562 10.371094 12.386719 9.886719 12.46875 9.59375 C 12.671875 8.863281 13.117188 8.335938 13.769531 8.050781 C 13.921875 7.984375 14.097656 7.933594 14.277344 7.894531 C 14.375 7.871094 14.464844 7.859375 14.558594 7.851562 Z M 14.558594 7.851562 "/>
</g>
</svg>
